<svg width="16" height="16" viewBox="0 0 16 16" fill="none" xmlns="http://www.w3.org/2000/svg">
<g clip-path="url(#clip0_417_3054)">
<path d="M9.41341 9.41342C9.23032 9.60992 9.00951 9.76752 8.76418 9.87683C8.51885 9.98615 8.25402 10.0449 7.98547 10.0497C7.71693 10.0544 7.45019 10.005 7.20115 9.90441C6.95212 9.80382 6.7259 9.6541 6.53598 9.46419C6.34606 9.27427 6.19634 9.04805 6.09575 8.79901C5.99516 8.54998 5.94577 8.28323 5.9505 8.01469C5.95524 7.74615 6.01402 7.48132 6.12333 7.23598C6.23264 6.99065 6.39025 6.76985 6.58675 6.58675M0.666748 0.666748L15.3334 15.3334M11.9601 11.9601C10.8205 12.8288 9.43282 13.31 8.00008 13.3334C3.33341 13.3334 0.666748 8.00009 0.666748 8.00009C1.49601 6.45468 2.64617 5.10449 4.04008 4.04009L11.9601 11.9601ZM6.60008 2.82675C7.05897 2.71934 7.52879 2.66564 8.00008 2.66675C12.6667 2.66675 15.3334 8.00009 15.3334 8.00009C14.9287 8.75716 14.4461 9.46991 13.8934 10.1268L6.60008 2.82675Z" stroke="#7A7E80" stroke-linecap="round" stroke-linejoin="round"/>
</g>
<defs>
<clipPath id="clip0_417_3054">
<rect width="16" height="16" fill="white"/>
</clipPath>
</defs>
</svg>
