<svg width="171" height="18" viewBox="0 0 171 18" fill="none" xmlns="http://www.w3.org/2000/svg">
<path d="M2.49504 4.39968C3.19387 6.18134 4.65057 7.07199 6.86541 7.07199C8.11528 7.07199 9.11695 6.72278 9.86993 6.02378C10.6227 5.32507 10.9993 4.53284 10.9993 3.64686C10.9993 2.76122 10.6153 2.07207 9.84763 1.57986C9.27675 1.2158 8.57287 1.03338 7.73637 1.03338C6.89966 1.03338 6.05829 1.27495 5.21178 1.75728C4.14868 2.37731 3.24302 3.25811 2.49504 4.39968ZM4.70989 13.4651C3.94201 13.4651 3.20599 13.3145 2.50261 13.0149C1.79861 12.7142 1.23756 12.2741 0.819563 11.693C0.4009 11.1126 0.147688 10.478 0.0589794 9.78885C0.0195496 9.4935 0 9.16869 0 8.81435C0 8.45985 0.044274 7.99238 0.132983 7.41164C0.221369 6.83074 0.41575 6.2007 0.716148 5.52156C1.01622 4.84275 1.37316 4.24245 1.78649 3.72054C1.61891 3.06113 1.53552 2.45338 1.53552 1.89755C1.53552 1.34122 1.59935 0.82204 1.72733 0.339715C1.7469 0.260997 1.77904 0.20445 1.82334 0.169703C1.86761 0.135286 1.89942 0.117995 1.91931 0.117995C2.01756 0.117995 2.04713 0.238701 2.00783 0.479946C1.96858 0.721066 1.94889 1.06573 1.94889 1.51314C1.94889 1.96121 2.01272 2.52949 2.14083 3.21865C2.9281 2.20519 3.85349 1.46693 4.91655 1.00397C5.73336 0.649463 6.58959 0.472541 7.4854 0.472541C7.74137 0.472541 8.00702 0.486895 8.28269 0.516637C9.79833 0.68421 10.8221 1.26511 11.3536 2.259C11.57 2.67233 11.6784 3.10038 11.6784 3.54345C11.6784 3.98602 11.5751 4.44398 11.3683 4.91642C10.9351 5.86155 10.1923 6.56025 9.13908 7.01317C8.45977 7.30856 7.71647 7.45574 6.90955 7.45574C6.56501 7.45574 6.21585 7.43183 5.86134 7.38174C4.09941 7.1261 2.87912 6.28976 2.19981 4.87216C1.96374 5.20714 1.71993 5.76814 1.46896 6.55525C1.21804 7.34298 1.07276 7.9484 1.03351 8.37129C0.993919 8.79446 0.974353 9.149 0.974353 9.43434C0.974353 9.72018 0.993919 10.0156 1.03351 10.3203C1.10234 10.8618 1.30884 11.3512 1.65366 11.7893C1.99799 12.227 2.45818 12.5323 3.03391 12.7047C3.60981 12.8768 4.10926 12.9632 4.53263 12.9632C5.9006 12.9632 7.06691 12.6774 8.0316 12.1067C8.61233 11.762 9.06752 11.3711 9.39745 10.9326C9.72709 10.495 10.0789 9.89226 10.4529 9.1241C10.5121 8.99661 10.5735 8.95202 10.6376 8.99128C10.7015 9.03103 10.699 9.1241 10.6304 9.27211C10.2561 10.03 9.90902 10.6302 9.58926 11.0728C9.2693 11.5162 8.83384 11.9295 8.28269 12.313C7.18021 13.0812 5.98916 13.4651 4.70989 13.4651Z" fill="#918F90"/>
<path d="M12.4315 6.05338C12.4315 6.49645 12.151 6.91511 11.5898 7.30841C11.7866 7.31793 12.0496 7.32293 12.3798 7.32293C12.7094 7.32293 13.1253 7.29807 13.6272 7.24926C13.6469 7.27818 13.6569 7.35768 13.6569 7.485C13.6569 7.61332 13.5976 7.80269 13.4795 8.05378C13.3615 8.30487 13.2556 8.52126 13.1622 8.70318C13.0684 8.88561 12.9801 9.05773 12.8963 9.22026C12.8128 9.38249 12.7193 9.58187 12.6158 9.81811C12.5126 10.0542 12.4261 10.2711 12.3575 10.4676C12.1114 11.2158 12.151 11.5898 12.4757 11.5898C12.8889 11.5898 13.499 10.7682 14.3065 9.12396C14.3752 8.99647 14.4319 8.94737 14.4762 8.97678C14.5206 9.00602 14.5426 9.04284 14.5426 9.08714C14.5426 9.1314 14.4786 9.28441 14.3506 9.54506C14.2227 9.80599 14.0848 10.0741 13.9373 10.3496C13.7896 10.6251 13.5584 10.9453 13.2434 11.3092C12.8692 11.7618 12.51 11.988 12.1657 11.988C11.7817 11.988 11.5161 11.7573 11.3684 11.2944C11.3387 11.2058 11.3239 11.0727 11.3239 10.8961C11.3239 10.7186 11.3805 10.4829 11.4938 10.1875C11.6069 9.89212 11.7866 9.5331 12.0327 9.10944C12.2786 8.68622 12.4165 8.4377 12.4462 8.3637C12.4757 8.29002 12.4905 8.21891 12.4905 8.14975C12.4905 7.84484 12.0965 7.68232 11.3093 7.66242L11.1322 8.1349C10.512 9.759 9.9164 10.8465 9.34551 11.3978C9.24743 11.4864 9.198 11.4569 9.198 11.3092C9.198 11.2795 9.20784 11.2452 9.22757 11.2058C9.77873 10.4779 10.2559 9.61662 10.6597 8.62178C11.0632 7.62817 11.3437 6.68338 11.5011 5.7874C11.5604 5.48249 11.698 5.32948 11.9146 5.32948C12.1309 5.32948 12.2886 5.46764 12.387 5.74313C12.4165 5.83166 12.4315 5.93507 12.4315 6.05338Z" fill="#918F90"/>
<path d="M17.4066 7.3377C17.4066 7.14076 17.3278 7.04235 17.1704 7.04235C16.8946 7.04235 16.4766 7.38151 15.9154 8.06082C15.5808 8.47448 15.2855 8.93723 15.0296 9.44868C15.1968 9.44868 15.4405 9.38986 15.7602 9.27188C16.0802 9.15362 16.3584 8.99639 16.5945 8.79911C17.1358 8.33664 17.4066 7.84948 17.4066 7.3377ZM14.9263 9.7001C14.7883 10.0347 14.7195 10.4087 14.7195 10.822C14.7195 11.0978 14.7809 11.3163 14.9042 11.4793C15.0272 11.6414 15.2016 11.7228 15.4284 11.7228C16.3238 11.7228 17.1358 10.8811 17.8644 9.19788C17.9331 9.04036 18.0168 8.97165 18.1152 8.99105C18.1546 9.00106 18.1743 9.0258 18.1743 9.06505C18.1743 9.10448 18.0635 9.36256 17.8421 9.84033C17.6207 10.3177 17.3966 10.704 17.1704 10.9994C16.6684 11.6886 16.0483 12.0327 15.3101 12.0327C14.9165 12.0327 14.5815 11.9049 14.3063 11.6488C14.0307 11.3932 13.8928 11.0432 13.8928 10.6006C13.8928 10.1575 13.9985 9.68765 14.2102 9.19047C14.4218 8.69376 14.7096 8.23079 15.0739 7.80261C15.4379 7.37456 15.8564 7.06221 16.3289 6.86493C16.5551 6.76686 16.7718 6.71755 16.9785 6.71755C17.1851 6.71755 17.3769 6.7767 17.5543 6.89468C17.7216 7.0328 17.8053 7.18502 17.8053 7.3521C17.8053 7.94284 17.4509 8.50922 16.7422 9.0502C16.5257 9.21778 16.2204 9.36756 15.827 9.50039C15.433 9.6335 15.133 9.7001 14.9263 9.7001Z" fill="#918F90"/>
<path d="M21.6438 9.17574C21.3191 9.80123 21.1246 10.2685 21.0606 10.5785C20.9964 10.8887 20.9646 11.1393 20.9646 11.3313C20.9646 11.5232 21.0386 11.6195 21.1861 11.6195C21.3731 11.6195 21.6043 11.4475 21.88 11.1025C22.2835 10.6008 22.6821 9.94635 23.0759 9.13893C23.1151 9.05036 23.1593 9.00122 23.2089 8.99121C23.2874 8.9618 23.327 8.99121 23.327 9.07977C23.327 9.12937 23.3123 9.18853 23.2825 9.25719C22.3769 11.0876 21.6143 12.0032 20.994 12.0032C20.7085 12.0032 20.4774 11.8653 20.3003 11.5898C20.2116 11.4421 20.1673 11.2453 20.1673 10.9996C20.1673 10.7535 20.2165 10.4527 20.315 10.0986C19.5273 11.3685 18.8482 12.0032 18.2776 12.0032C18.1199 12.0032 17.9771 11.9539 17.8494 11.8558C17.5542 11.649 17.4065 11.2945 17.4065 10.7927C17.4065 9.82808 17.8249 8.84854 18.6614 7.85448C19.1338 7.30345 19.7146 6.9441 20.4037 6.77686C20.5905 6.72726 20.7676 6.70286 20.9352 6.70286C21.3878 6.70286 21.7717 6.86054 22.0868 7.17534C22.1849 7.28359 22.2145 7.38701 22.1752 7.48508C22.1359 7.58399 22.0521 7.62325 21.9244 7.60385C21.816 7.24934 21.5796 7.07192 21.2157 7.07192C20.7924 7.07192 20.2707 7.40686 19.6504 8.07583C19.2962 8.46963 18.9664 8.9321 18.6614 9.46402C18.2776 10.1041 18.0855 10.6153 18.0855 10.9996C18.0855 11.383 18.2086 11.575 18.4547 11.575C19.0453 11.575 19.818 10.6699 20.7726 8.85839C20.9596 8.49449 21.1171 8.24584 21.2451 8.11269C21.3731 7.98036 21.5353 7.91359 21.7323 7.91359C21.7717 7.91359 21.8727 7.92865 22.0351 7.95789C22.1975 7.98731 22.3179 7.99231 22.3969 7.97241C22.2195 8.14983 21.9687 8.55108 21.6438 9.17574Z" fill="#918F90"/>
<path d="M25.6744 6.36362C26.324 5.20215 26.649 4.39502 26.649 3.94211C26.649 3.74513 26.6141 3.64672 26.5456 3.64672C26.437 3.64672 26.2723 3.80428 26.0508 4.11903C25.8294 4.43395 25.4578 5.18226 24.9364 6.36362H25.6744ZM25.4825 6.68838H24.7886C24.6705 6.96388 24.4047 7.61833 23.9912 8.65197C24.5229 8.10048 25.0197 7.44624 25.4825 6.68838ZM22.7068 10.7926C22.7068 9.97568 23.1003 8.60738 23.888 6.68838H23.1203C23.0708 6.68838 23.0389 6.66108 23.0241 6.60681C23.0095 6.55316 23.0143 6.49884 23.0389 6.44474C23.0636 6.39042 23.1003 6.36362 23.1497 6.36362H24.0355C24.3899 5.5859 24.7195 4.93617 25.0247 4.41442C25.3298 3.8928 25.6103 3.54086 25.8663 3.35877C26.1221 3.17635 26.3068 3.08584 26.42 3.08584C26.533 3.08584 26.6141 3.09523 26.6637 3.11509C26.8899 3.22355 27.0032 3.44734 27.0032 3.78699C27.0032 4.12615 26.8899 4.53736 26.6637 5.01969C26.437 5.50205 26.2156 5.94996 25.9991 6.36362H26.7078C26.7569 6.36362 26.7891 6.39042 26.8038 6.44474C26.8185 6.49884 26.8135 6.55316 26.7891 6.60681C26.7645 6.66108 26.7275 6.68838 26.6784 6.68838H25.822C25.2807 7.60377 24.6263 8.4154 23.8586 9.12396L23.5188 10.6301C23.4893 10.7582 23.4745 10.8836 23.4745 11.0064C23.4745 11.1297 23.5089 11.2556 23.5779 11.3829C23.6466 11.5112 23.7552 11.5749 23.9027 11.5749C24.0699 11.5749 24.2571 11.5161 24.4637 11.3978C24.9364 11.0433 25.4578 10.3005 26.0288 9.16855C26.0681 9.07969 26.1146 9.02588 26.1689 9.00602C26.2229 8.98613 26.2551 8.99858 26.2649 9.04284C26.2746 9.08714 26.2599 9.1587 26.2206 9.25711C25.8958 9.93592 25.6397 10.4187 25.4529 10.7041C24.9215 11.5604 24.3555 11.988 23.7552 11.988C23.4499 11.988 23.1988 11.8756 23.0022 11.6489C22.805 11.4227 22.7068 11.1371 22.7068 10.7926Z" fill="#918F90"/>
<path d="M29.1588 7.3377C29.1588 7.14076 29.0798 7.04235 28.9226 7.04235C28.6468 7.04235 28.2287 7.38151 27.6676 8.06082C27.3329 8.47448 27.0376 8.93723 26.7818 9.44868C26.949 9.44868 27.1925 9.38986 27.5128 9.27188C27.8322 9.15362 28.1106 8.99639 28.3467 8.79911C28.888 8.33664 29.1588 7.84948 29.1588 7.3377ZM26.6783 9.7001C26.5403 10.0347 26.4717 10.4087 26.4717 10.822C26.4717 11.0978 26.5331 11.3163 26.6562 11.4793C26.7793 11.6414 26.9538 11.7228 27.1804 11.7228C28.076 11.7228 28.888 10.8811 29.6164 9.19788C29.6851 9.04036 29.769 8.97165 29.8674 8.99105C29.9066 9.00106 29.9265 9.0258 29.9265 9.06505C29.9265 9.10448 29.8157 9.36256 29.5943 9.84033C29.3729 10.3177 29.149 10.704 28.9226 10.9994C28.4205 11.6886 27.8005 12.0327 27.0623 12.0327C26.6683 12.0327 26.3337 11.9049 26.0582 11.6488C25.7827 11.3932 25.645 11.0432 25.645 10.6006C25.645 10.1575 25.7505 9.68765 25.9622 9.19047C26.1739 8.69376 26.4618 8.23079 26.8258 7.80261C27.1901 7.37456 27.6086 7.06221 28.081 6.86493C28.3073 6.76686 28.5238 6.71755 28.7306 6.71755C28.9373 6.71755 29.1294 6.7767 29.3065 6.89468C29.4737 7.0328 29.5573 7.18502 29.5573 7.3521C29.5573 7.94284 29.2031 8.50922 28.4942 9.0502C28.2779 9.21778 27.9726 9.36756 27.5789 9.50039C27.1852 9.6335 26.8852 9.7001 26.6783 9.7001Z" fill="#918F90"/>
<path d="M33.499 7.23432C33.3712 7.10654 33.1914 7.04238 32.9601 7.04238C32.7289 7.04238 32.4065 7.21446 31.9932 7.55896C31.3336 8.11045 30.7873 8.78959 30.3544 9.59672C30.0688 10.1279 29.9262 10.5664 29.9262 10.9109C29.9262 11.0681 29.9579 11.2108 30.0222 11.3386C30.086 11.4664 30.187 11.5311 30.3248 11.5311C30.6593 11.5311 31.0727 11.1864 31.565 10.4972C32.057 9.80855 32.7018 8.72059 33.499 7.23432ZM32.7758 11.1174C32.7758 11.4322 32.9034 11.5897 33.1596 11.5897C33.622 11.5897 34.2373 10.817 35.005 9.27191C35.0348 9.21247 35.0616 9.15365 35.0863 9.0945C35.1107 9.03538 35.1503 8.99642 35.2044 8.97673C35.2584 8.95683 35.2952 8.96928 35.3151 9.01338C35.3347 9.05768 35.3248 9.12924 35.2855 9.22732C34.4981 11.0581 33.7009 11.9736 32.8937 11.9736C32.6281 11.9736 32.4163 11.8557 32.2589 11.6194C32.1013 11.3829 32.0228 11.1495 32.0228 10.918C32.0228 10.6871 32.0472 10.4728 32.0965 10.276C31.5254 11.2208 31.0334 11.7572 30.6201 11.8851C30.5021 11.9344 30.3861 11.9587 30.2731 11.9587C30.1599 11.9587 30.0492 11.9442 29.9409 11.9145C29.4586 11.7867 29.2175 11.4027 29.2175 10.7629C29.2175 10.3297 29.3283 9.84992 29.5497 9.32362C29.7713 8.7967 30.0836 8.29241 30.4871 7.81005C30.8907 7.32822 31.3779 7.00313 31.949 6.83555C32.1558 6.76689 32.3993 6.73214 32.6798 6.73214C32.9601 6.73214 33.2727 6.82066 33.6173 6.99812C34.2866 5.73808 34.8573 4.57157 35.3298 3.49899C35.4676 3.17419 35.603 2.96542 35.736 2.87156C35.8687 2.77849 35.9916 2.73129 36.1051 2.73129C36.2182 2.73129 36.287 2.73129 36.3116 2.73129C36.3362 2.73129 36.4299 2.74407 36.5923 2.76814C36.7547 2.79284 36.8802 2.79995 36.9688 2.79044C36.7424 2.99727 36.1419 4.00117 35.1674 5.8022C33.9272 8.10511 33.1791 9.64048 32.9235 10.4087C32.8249 10.6942 32.7758 10.9308 32.7758 11.1174Z" fill="#918F90"/>
<path d="M46.4618 7.98716C47.18 7.98716 47.9601 7.86174 48.8019 7.61065C49.6433 7.36006 50.3891 6.99306 51.0385 6.51074C52.2985 5.5561 52.9286 4.57155 52.9286 3.5578C52.9286 2.40651 52.0574 1.62395 50.3151 1.2103C49.7637 1.97829 49.0501 3.14444 48.1744 4.70938C47.2983 6.27466 46.6583 7.36713 46.255 7.98716C46.3237 7.98716 46.3928 7.98716 46.4618 7.98716ZM52.3085 1.56464C53.3517 2.18479 53.8733 2.9331 53.8733 3.80922C53.8733 4.49838 53.4895 5.23634 52.7217 6.02357C52.2787 6.48633 51.7546 6.88481 51.1494 7.21946C50.5438 7.55411 49.9461 7.79519 49.3554 7.94286C48.3316 8.18944 47.4066 8.31193 46.5797 8.31193C46.4027 8.31193 46.2256 8.30725 46.0482 8.29708C45.3297 9.35062 44.5913 10.2461 43.8335 10.9841C42.7211 12.0274 41.4959 12.5498 40.1573 12.5498C38.8779 12.5498 38.0907 12.1999 37.7953 11.5008C37.7262 11.3336 37.6919 11.1392 37.6919 10.918C37.6919 10.6961 37.8052 10.4579 38.0311 10.2018C38.3856 9.7982 38.8828 9.5967 39.5223 9.5967C39.936 9.5967 40.3687 9.67038 40.822 9.81805C40.9892 9.87721 41.0479 9.9412 40.9991 10.0099C40.9594 10.0496 40.8316 10.0298 40.6152 9.95071C40.3985 9.8722 40.13 9.83245 39.8102 9.83245C39.4905 9.83245 39.21 9.95332 38.9689 10.1944C38.7277 10.4356 38.6073 10.6942 38.6073 10.9697C38.6073 11.0779 38.6268 11.1864 38.6661 11.2943C38.8237 11.8262 39.2717 12.0914 40.0096 12.0914C41.112 12.0914 42.195 11.5802 43.2581 10.556C44.0159 9.81805 44.8672 8.48934 45.812 6.56989C46.176 5.85149 46.629 5.05181 47.1704 4.17068C47.7115 3.29004 48.2629 2.53479 48.8238 1.90429C48.8925 1.83562 48.9814 1.74673 49.0898 1.63881C49.2962 1.40207 49.4683 1.21559 49.6065 1.07747C48.8979 0.979394 48.1396 0.930086 47.3326 0.930086C46.5255 0.930086 45.7628 0.996354 45.0442 1.12918C44.3257 1.262 43.7011 1.41953 43.1691 1.60195C42.6376 1.78392 42.0986 2.02016 41.5526 2.3105C41.0061 2.60089 40.5461 2.96784 40.1722 3.41042C39.6799 3.97146 39.4342 4.5567 39.4342 5.16734C39.4342 5.54125 39.5666 5.89075 39.8326 6.21555C40.118 6.56005 40.4845 6.73213 40.9325 6.73213C41.3805 6.73213 41.8136 6.56005 42.2318 6.21555C42.65 5.87089 42.9478 5.44818 43.1249 4.94595C43.1344 4.87729 43.1567 4.83009 43.1915 4.80572C43.2258 4.78099 43.2581 4.78339 43.2874 4.8128C43.3168 4.84254 43.3317 4.89185 43.3317 4.96085C43.3218 5.60069 43.0732 6.10502 42.5863 6.47409C42.0986 6.84344 41.56 7.02748 40.9693 7.02748C40.3 7.02748 39.7536 6.83054 39.3308 6.43673C38.9072 6.04343 38.6958 5.53624 38.6958 4.91621C38.6958 4.34566 38.8481 3.83119 39.1533 3.37356C39.4586 2.91564 39.8226 2.54434 40.2458 2.2588C40.669 1.97345 41.1563 1.71732 41.7077 1.49113C42.6425 1.11722 43.6242 0.853642 44.6529 0.700962C45.6817 0.548736 46.641 0.472333 47.532 0.472333C48.423 0.472333 49.247 0.551177 50.0052 0.708863C50.3593 0.433367 50.6696 0.245938 50.9351 0.14753C51.2011 0.0491209 51.3509 -0.000145912 51.3856 -0.000145912C51.4199 -0.000145912 51.4419 0.00485897 51.4518 0.0147047C51.5109 0.0147047 51.5234 0.0465555 51.489 0.110383C51.4543 0.17483 51.3413 0.270842 51.1494 0.39862C50.9575 0.52644 50.773 0.679162 50.5955 0.856083C51.2255 1.02366 51.7964 1.2599 52.3085 1.56464Z" fill="#918F90"/>
<path d="M55.7779 9.17574C55.4531 9.80123 55.2587 10.2685 55.1946 10.5785C55.1305 10.8887 55.0986 11.1393 55.0986 11.3313C55.0986 11.5232 55.1727 11.6195 55.3204 11.6195C55.5073 11.6195 55.7386 11.4475 56.0141 11.1025C56.4178 10.6008 56.8161 9.94635 57.2099 9.13893C57.2492 9.05036 57.2935 9.00122 57.3431 8.99121C57.4213 8.9618 57.461 8.99121 57.461 9.07977C57.461 9.12937 57.4466 9.18853 57.4168 9.25719C56.5109 11.0876 55.7485 12.0032 55.1284 12.0032C54.8426 12.0032 54.6114 11.8653 54.4343 11.5898C54.3458 11.4421 54.3015 11.2453 54.3015 10.9996C54.3015 10.7535 54.3507 10.4527 54.4492 10.0986C53.6616 11.3685 52.9824 12.0032 52.4119 12.0032C52.2543 12.0032 52.1112 11.9539 51.9834 11.8558C51.6885 11.649 51.5408 11.2945 51.5408 10.7927C51.5408 9.82808 51.959 8.84854 52.7954 7.85448C53.2678 7.30345 53.8486 6.9441 54.5377 6.77686C54.7247 6.72726 54.9017 6.70286 55.0693 6.70286C55.5218 6.70286 55.9057 6.86054 56.2209 7.17534C56.3189 7.28359 56.3487 7.38701 56.3094 7.48508C56.2701 7.58399 56.1861 7.62325 56.0587 7.60385C55.9499 7.24934 55.7137 7.07192 55.3497 7.07192C54.9266 7.07192 54.4049 7.40686 53.7844 8.07583C53.4304 8.46963 53.1007 8.9321 52.7954 9.46402C52.4119 10.1041 52.2196 10.6153 52.2196 10.9996C52.2196 11.383 52.3429 11.575 52.589 11.575C53.1797 11.575 53.952 10.6699 54.9067 8.85839C55.0937 8.49449 55.2513 8.24584 55.3791 8.11269C55.5073 7.98036 55.6695 7.91359 55.8664 7.91359C55.9057 7.91359 56.007 7.92865 56.1692 7.95789C56.3318 7.98731 56.4521 7.99231 56.5311 7.97241C56.3537 8.14983 56.1026 8.55108 55.7779 9.17574Z" fill="#918F90"/>
<path d="M59.8082 6.36362C60.4581 5.20215 60.7828 4.39502 60.7828 3.94211C60.7828 3.74513 60.7485 3.64672 60.6794 3.64672C60.571 3.64672 60.4064 3.80428 60.1851 4.11903C59.9634 4.43395 59.5919 5.18226 59.0703 6.36362H59.8082ZM59.6167 6.68838H58.9226C58.8047 6.96388 58.5387 7.61833 58.1255 8.65197C58.657 8.10048 59.1538 7.44624 59.6167 6.68838ZM56.8411 10.7926C56.8411 9.97568 57.2345 8.60738 58.0221 6.68838H57.2543C57.2051 6.68838 57.1728 6.66108 57.1583 6.60681C57.1434 6.55316 57.1484 6.49884 57.1728 6.44474C57.1976 6.39042 57.2345 6.36362 57.2837 6.36362H58.1697C58.5242 5.5859 58.8535 4.93617 59.1588 4.41442C59.4637 3.8928 59.7445 3.54086 60.0006 3.35877C60.2562 3.17635 60.4407 3.08584 60.5541 3.08584C60.667 3.08584 60.7485 3.09523 60.7977 3.11509C61.024 3.22355 61.1373 3.44734 61.1373 3.78699C61.1373 4.12615 61.024 4.53736 60.7977 5.01969C60.571 5.50205 60.3497 5.94996 60.1334 6.36362H60.842C60.8912 6.36362 60.923 6.39042 60.9379 6.44474C60.9528 6.49884 60.9474 6.55316 60.923 6.60681C60.8986 6.66108 60.8614 6.68838 60.8126 6.68838H59.9559C59.4148 7.60377 58.7604 8.4154 57.9927 9.12396L57.6531 10.6301C57.6233 10.7582 57.6088 10.8836 57.6088 11.0064C57.6088 11.1297 57.6431 11.2556 57.7122 11.3829C57.7809 11.5112 57.8893 11.5749 58.0369 11.5749C58.2041 11.5749 58.391 11.5161 58.5979 11.3978C59.0703 11.0433 59.5919 10.3005 60.1627 9.16855C60.202 9.07969 60.2488 9.02588 60.303 9.00602C60.3572 8.98613 60.389 8.99858 60.3989 9.04284C60.4089 9.08714 60.394 9.1587 60.3547 9.25711C60.03 9.93592 59.7739 10.4187 59.5869 10.7041C59.0558 11.5604 58.4895 11.988 57.8893 11.988C57.584 11.988 57.3329 11.8756 57.1364 11.6489C56.9391 11.4227 56.8411 11.1371 56.8411 10.7926Z" fill="#918F90"/>
<path d="M62.1854 6.22992C62.0477 6.34822 61.8946 6.40734 61.7275 6.40734C61.56 6.40734 61.4276 6.34822 61.3292 6.22992C61.2303 6.11215 61.191 5.96927 61.2109 5.8022C61.2402 5.63512 61.3242 5.49195 61.462 5.37418C61.5997 5.25571 61.7519 5.1966 61.9195 5.1966C62.087 5.1966 62.2223 5.25571 62.3257 5.37418C62.4291 5.49195 62.4659 5.63512 62.4365 5.8022C62.4067 5.96927 62.3232 6.11215 62.1854 6.22992ZM60.7385 11.6488C60.9254 11.6488 61.1223 11.555 61.3292 11.3683C61.6932 11.0039 62.1557 10.2607 62.717 9.1388C62.7857 8.99108 62.8547 8.94732 62.9234 9.00597C62.9433 9.02583 62.9532 9.05768 62.9532 9.10194C62.9532 9.1462 62.9135 9.25462 62.8349 9.4267C62.7559 9.59912 62.6847 9.75424 62.621 9.89207C62.5569 10.0298 62.434 10.2536 62.2516 10.5635C62.0696 10.8737 61.905 11.1124 61.7573 11.2795C61.3536 11.7424 60.9722 11.9736 60.6131 11.9736C60.2537 11.9736 59.9951 11.8652 59.8379 11.6488C59.6803 11.4322 59.6013 11.1909 59.6013 10.9254C59.6013 10.6594 59.6654 10.3694 59.7937 10.0541L60.7385 7.64752C60.7579 7.58837 60.7678 7.50986 60.7678 7.41145C60.7678 7.31287 60.7091 7.18505 60.5908 7.02749L61.4028 7.01297C61.6291 7.01297 61.7623 7.05483 61.8016 7.13835C61.8409 7.22236 61.8111 7.35213 61.713 7.52971L60.532 10.2904C60.3641 10.6548 60.281 10.965 60.281 11.2208C60.281 11.5062 60.4332 11.6488 60.7385 11.6488Z" fill="#918F90"/>
<path d="M65.8614 7.3377C65.8614 7.14076 65.7824 7.04235 65.6252 7.04235C65.3493 7.04235 64.9311 7.38151 64.3702 8.06082C64.0355 8.47448 63.7402 8.93723 63.4846 9.44868C63.6517 9.44868 63.8953 9.38986 64.2151 9.27188C64.5348 9.15362 64.8132 8.99639 65.0494 8.79911C65.5905 8.33664 65.8614 7.84948 65.8614 7.3377ZM63.3811 9.7001C63.243 10.0347 63.1743 10.4087 63.1743 10.822C63.1743 11.0978 63.2355 11.3163 63.3588 11.4793C63.4817 11.6414 63.6566 11.7228 63.8829 11.7228C64.7785 11.7228 65.5905 10.8811 66.3189 9.19788C66.388 9.04036 66.4716 8.97165 66.57 8.99105C66.6093 9.00106 66.6292 9.0258 66.6292 9.06505C66.6292 9.10448 66.5183 9.36256 66.297 9.84033C66.0753 10.3177 65.8515 10.704 65.6252 10.9994C65.1235 11.6886 64.503 12.0327 63.7646 12.0327C63.3712 12.0327 63.0366 11.9049 62.7611 11.6488C62.4852 11.3932 62.3474 11.0432 62.3474 10.6006C62.3474 10.1575 62.4533 9.68765 62.6651 9.19047C62.8765 8.69376 63.1644 8.23079 63.5288 7.80261C63.8928 7.37456 64.311 7.06221 64.7834 6.86493C65.0097 6.76686 65.2265 6.71755 65.4333 6.71755C65.6401 6.71755 65.8316 6.7767 66.0091 6.89468C66.1762 7.0328 66.2602 7.18502 66.2602 7.3521C66.2602 7.94284 65.9057 8.50922 65.1971 9.0502C64.9803 9.21778 64.6755 9.36756 64.2817 9.50039C63.8879 9.6335 63.5876 9.7001 63.3811 9.7001Z" fill="#918F90"/>
<path d="M70.8222 7.13101C69.6114 9.25716 69.0063 10.645 69.0063 11.2944C69.0063 11.5509 69.0997 11.6783 69.2867 11.6783C69.7885 11.6783 70.4627 10.8274 71.3095 9.12401C71.3687 8.98618 71.4274 8.93207 71.4866 8.96177C71.5457 8.99118 71.5751 9.03093 71.5751 9.07975C71.5751 9.12934 71.5552 9.1885 71.5159 9.25716C70.9943 10.3104 70.5542 11.0359 70.1947 11.4347C69.8352 11.8335 69.4762 12.0328 69.1167 12.0328C68.7577 12.0328 68.4846 11.895 68.2973 11.6195C68.1988 11.4914 68.15 11.3164 68.15 11.095C68.15 10.8738 68.1988 10.6053 68.2973 10.2905C68.3957 9.97573 68.6667 9.46399 69.1097 8.75494C69.2181 8.57802 69.2718 8.43775 69.2718 8.33434C69.2718 8.23092 69.1883 8.17921 69.0212 8.17921C68.8536 8.17921 68.5339 8.4006 68.0615 8.844C67.3525 9.4934 66.6683 10.4676 66.0089 11.7669C65.9502 11.8653 65.8836 11.9269 65.8095 11.9514C65.7359 11.9761 65.5907 11.9936 65.3743 12.0031C65.158 12.013 65.0149 12.0374 64.9458 12.0771C65.1038 11.7619 65.4136 11.1175 65.8761 10.1428C66.703 8.42029 67.2441 7.43624 67.5001 7.19016C67.6184 7.07189 67.7806 7.01307 67.9874 7.01307C68.0267 7.01307 68.1277 7.02759 68.2902 7.057C68.4524 7.08674 68.5727 7.09175 68.6518 7.07189C68.2877 7.26917 67.6921 8.19377 66.8656 9.84741C67.3281 9.27673 67.7487 8.82171 68.1277 8.48205C68.5066 8.1424 68.962 7.82761 69.4935 7.53676C70.0251 7.24687 70.4135 7.10164 70.6596 7.10164C70.7188 7.10164 70.773 7.11115 70.8222 7.13101Z" fill="#918F90"/>
<path d="M73.9075 6.36362C74.5574 5.20215 74.8821 4.39502 74.8821 3.94211C74.8821 3.74513 74.8473 3.64672 74.7787 3.64672C74.6703 3.64672 74.5057 3.80428 74.2839 4.11903C74.0626 4.43395 73.6912 5.18226 73.1696 6.36362H73.9075ZM73.7156 6.68838H73.0219C72.9036 6.96388 72.638 7.61833 72.2243 8.65197C72.7559 8.10048 73.2527 7.44624 73.7156 6.68838ZM70.9399 10.7926C70.9399 9.97568 71.3337 8.60738 72.1213 6.68838H71.3536C71.304 6.68838 71.2721 6.66108 71.2576 6.60681C71.2427 6.55316 71.2477 6.49884 71.2721 6.44474C71.2965 6.39042 71.3337 6.36362 71.383 6.36362H72.269C72.6231 5.5859 72.9528 4.93617 73.2581 4.41442C73.5629 3.8928 73.8434 3.54086 74.0995 3.35877C74.3551 3.17635 74.54 3.08584 74.6533 3.08584C74.7663 3.08584 74.8473 3.09523 74.897 3.11509C75.1233 3.22355 75.2362 3.44734 75.2362 3.78699C75.2362 4.12615 75.1233 4.53736 74.897 5.01969C74.6703 5.50205 74.449 5.94996 74.2322 6.36362H74.9408C74.9901 6.36362 75.0223 6.39042 75.0368 6.44474C75.0521 6.49884 75.0467 6.55316 75.0223 6.60681C74.9975 6.66108 74.9607 6.68838 74.9115 6.68838H74.0552C73.5137 7.60377 72.8593 8.4154 72.0916 9.12396L71.752 10.6301C71.7226 10.7582 71.7077 10.8836 71.7077 11.0064C71.7077 11.1297 71.742 11.2556 71.8111 11.3829C71.8798 11.5112 71.9881 11.5749 72.1358 11.5749C72.3034 11.5749 72.4903 11.5161 72.6967 11.3978C73.1696 11.0433 73.6912 10.3005 74.262 9.16855C74.3013 9.07969 74.3481 9.02588 74.4023 9.00602C74.4564 8.98613 74.4883 8.99858 74.4982 9.04284C74.5077 9.08714 74.4928 9.1587 74.454 9.25711C74.1292 9.93592 73.8728 10.4187 73.6862 10.7041C73.1547 11.5604 72.5884 11.988 71.9881 11.988C71.6833 11.988 71.4322 11.8756 71.2353 11.6489C71.038 11.4227 70.9399 11.1371 70.9399 10.7926Z" fill="#918F90"/>
<path d="M76.6834 6.71771C77.1756 5.94016 77.5371 5.27785 77.7684 4.73182C77.9996 4.18584 78.1154 3.81388 78.1154 3.61739C78.1154 3.42012 78.0807 3.322 78.012 3.322C77.9136 3.322 77.7266 3.51658 77.4511 3.90484C77.1756 4.29409 76.8037 4.9928 76.3367 6.00175C75.8689 7.01066 75.4875 7.89423 75.1921 8.65205C75.6943 8.13999 76.1911 7.49543 76.6834 6.71771ZM74.941 9.53025C74.8624 9.76148 74.7958 9.9832 74.7421 10.1945C74.6879 10.4064 74.6606 10.6182 74.6606 10.8296C74.6606 11.0414 74.7098 11.2382 74.8082 11.4198C74.9067 11.6023 75.0643 11.6929 75.2806 11.6929C75.6351 11.6929 75.9797 11.4546 76.3144 10.9773C76.6486 10.4998 77.0031 9.8922 77.3775 9.15378C77.4561 9.01611 77.5297 8.9618 77.5988 8.99121C77.648 9.03096 77.6579 9.08267 77.6286 9.14633C77.5988 9.21049 77.5371 9.34816 77.4437 9.55966C77.3502 9.77182 77.2815 9.91904 77.2368 10.0026C77.1926 10.0866 77.1136 10.2338 77.0006 10.4456C76.8877 10.657 76.7893 10.8147 76.7057 10.9181C76.6217 11.0215 76.5088 11.1542 76.3661 11.3164C76.2234 11.4795 76.0877 11.5999 75.9599 11.6784C75.6153 11.895 75.2906 12.0032 74.9853 12.0032C74.6804 12.0032 74.4438 11.9369 74.2771 11.8041C74.1092 11.6713 74.0086 11.5286 73.9743 11.3761C73.9396 11.2233 73.9226 11.0876 73.9226 10.9698C73.9226 10.8514 73.9272 10.6992 73.9375 10.5122C73.9669 10.1971 74.0281 9.8922 74.122 9.59685C74.2155 9.30145 74.2672 9.13438 74.2771 9.09462C74.503 8.27765 74.8256 7.38701 75.2438 6.42252C75.662 5.45783 76.0165 4.73182 76.3069 4.24449C76.5969 3.75766 76.8261 3.42512 76.9936 3.24799C77.3282 2.89398 77.6579 2.71657 77.9827 2.71657C78.2089 2.71657 78.3616 2.87909 78.4402 3.20373C78.4501 3.26255 78.455 3.33656 78.455 3.42512C78.455 3.76006 78.3367 4.18327 78.101 4.69501C77.2542 6.57504 76.2453 8.05175 75.0742 9.12404C75.0643 9.16379 75.0196 9.29905 74.941 9.53025Z" fill="#918F90"/>
<path d="M74.4979 15.1773C74.3895 15.3937 74.3357 15.5931 74.3357 15.775C74.3357 15.9574 74.4048 16.0977 74.5425 16.1961C74.6803 16.2942 74.8524 16.3435 75.0592 16.3435C75.63 16.3435 76.2402 16.0505 76.8896 15.4652C77.5395 14.8795 78.1103 14.2524 78.6026 13.5831L78.9273 13.0361C77.3029 13.4598 76.2795 13.7647 75.8563 13.952C75.2263 14.2272 74.7738 14.6362 74.4979 15.1773ZM75.3545 16.6387C74.9214 16.6387 74.5868 16.5482 74.3506 16.3658C74.114 16.1836 73.9961 15.9645 73.9961 15.7089C73.9961 15.4528 74.0701 15.1624 74.2174 14.8381C74.4735 14.3359 74.9359 13.9318 75.6052 13.6269C76.1074 13.3907 76.7717 13.1715 77.5986 12.9701C78.4251 12.7682 78.9567 12.6328 79.1929 12.5641C79.5474 11.9442 79.9705 10.8368 80.4628 9.24181C79.892 10.246 79.4146 10.9498 79.0307 11.3534C78.6464 11.7572 78.258 11.9587 77.8642 11.9587C77.3326 11.9587 77.0228 11.7373 76.9339 11.2943C76.8946 11.2256 76.8847 11.1222 76.9045 10.984C76.924 10.8463 76.9364 10.7483 76.9413 10.6891C76.9463 10.63 76.9786 10.534 77.0373 10.4012C77.0965 10.2683 77.1357 10.1725 77.1556 10.1132C77.2636 9.88699 77.3571 9.70958 77.4361 9.58176C77.2785 9.58176 77.2342 9.50275 77.3029 9.34523L77.5689 8.82849C77.9035 8.18939 78.179 7.64745 78.3958 7.20488C78.4938 6.99805 78.6857 6.89464 78.9716 6.89464H79.8721C79.8522 6.91499 79.803 6.95342 79.7244 7.0129C79.5474 7.13084 79.4146 7.269 79.3261 7.42623C78.9716 8.03637 78.5285 8.9075 77.997 10.0392C77.7806 10.5021 77.6723 10.8418 77.6723 11.058C77.6723 11.2749 77.7091 11.4276 77.7831 11.5159C77.8568 11.6042 77.9577 11.6488 78.0859 11.6488C78.2725 11.6488 78.5335 11.4519 78.8681 11.058C79.5672 10.2415 80.3395 8.95676 81.1863 7.20488C81.2942 6.99805 81.4862 6.89464 81.7621 6.89464H82.5592C82.3032 7.07172 82.1017 7.29551 81.954 7.5665C81.8064 7.83732 81.6463 8.20378 81.4738 8.66642C81.3017 9.12917 81.0854 9.74383 80.8243 10.512C80.5633 11.2794 80.3643 11.8556 80.2266 12.2395C81.1515 11.964 81.8601 11.4767 82.3524 10.7777C82.5687 10.4728 82.879 9.9313 83.2827 9.15358C83.3514 9.01591 83.413 8.9616 83.4672 8.99101C83.5214 9.02042 83.5487 9.06018 83.5487 9.10932C83.5487 9.15859 83.4672 9.34796 83.3046 9.67777C83.1425 10.0074 82.9774 10.3123 82.8103 10.5931C82.6428 10.8736 82.4264 11.1614 82.1609 11.4568C81.8949 11.7522 81.5995 11.9855 81.2748 12.1581C80.9497 12.3302 80.5166 12.515 79.9755 12.7118C79.2173 14.0893 78.4549 15.1033 77.6872 15.753C76.9682 16.3435 76.191 16.6387 75.3545 16.6387Z" fill="#918F90"/>
<path d="M91.5849 4.50262C92.2839 6.28462 93.7404 7.17526 95.9556 7.17526C97.2052 7.17526 98.2067 6.82605 98.9595 6.12656C99.7128 5.42834 100.089 4.63578 100.089 3.74964C100.089 2.864 99.7054 2.17534 98.938 1.68313C98.3668 1.31862 97.6631 1.13665 96.8263 1.13665C95.9899 1.13665 95.1485 1.37773 94.3018 1.86009C93.2387 2.48025 92.3332 3.36138 91.5849 4.50262ZM93.8 13.5684C93.0318 13.5684 92.2963 13.4178 91.5927 13.1179C90.8887 12.8175 90.3273 12.3773 89.9095 11.7963C89.4909 11.2158 89.2378 10.5808 89.1492 9.89166C89.1095 9.59677 89.0901 9.27163 89.0901 8.91713C89.0901 8.56312 89.1348 8.09565 89.2229 7.51491C89.3114 6.93402 89.5058 6.30397 89.8061 5.62483C90.106 4.94602 90.463 4.34572 90.8763 3.82381C90.7087 3.1644 90.6256 2.55636 90.6256 2.00032C90.6256 1.44449 90.6893 0.925311 90.8175 0.442986C90.837 0.364268 90.8692 0.307721 90.9135 0.272974C90.9578 0.238558 90.9896 0.221267 91.0095 0.221267C91.1075 0.221267 91.1369 0.341972 91.098 0.583218C91.0587 0.824338 91.0388 1.169 91.0388 1.61641C91.0388 2.06448 91.1025 2.63276 91.2308 3.32163C92.018 2.30817 92.9437 1.5702 94.0064 1.10695C94.823 0.752733 95.6796 0.575316 96.5756 0.575316C96.8313 0.575316 97.0973 0.590166 97.3727 0.619908C98.8884 0.787481 99.9122 1.36788 100.443 2.36228C100.66 2.7756 100.768 3.20365 100.768 3.64672C100.768 4.08929 100.665 4.54725 100.459 5.01924C100.026 5.96449 99.2822 6.66353 98.229 7.11611C97.5498 7.4115 96.8065 7.55901 95.9994 7.55901C95.6548 7.55901 95.3057 7.5346 94.9516 7.48501C93.1894 7.22937 91.9691 6.39303 91.2895 4.97543C91.0537 5.31041 90.8101 5.87096 90.559 6.65819C90.3079 7.44625 90.1627 8.05168 90.1234 8.47456C90.0841 8.89773 90.0647 9.25227 90.0647 9.53712C90.0647 9.823 90.0841 10.1183 90.1234 10.4233C90.1921 10.9651 90.3989 11.4545 90.7435 11.8926C91.0881 12.3303 91.548 12.6355 92.1239 12.8079C92.7001 12.98 93.1994 13.0662 93.6225 13.0662C94.9909 13.0662 96.157 12.7803 97.1217 12.2099C97.702 11.8653 98.1575 11.4739 98.4876 11.0358C98.8172 10.5983 99.1688 9.99508 99.5432 9.22737C99.6019 9.09955 99.6636 9.05529 99.7277 9.09455C99.7914 9.1338 99.7889 9.22737 99.7203 9.37505C99.3459 10.1332 98.9988 10.7335 98.6795 11.1761C98.3593 11.6195 97.9242 12.0328 97.3727 12.4163C96.2704 13.1844 95.0794 13.5684 93.8 13.5684Z" fill="#918F90"/>
<path d="M101.521 6.15689C101.521 6.59946 101.241 7.01813 100.68 7.4116C100.877 7.42144 101.14 7.42645 101.47 7.42645C101.799 7.42645 102.216 7.40159 102.717 7.35228C102.737 7.38169 102.747 7.4612 102.747 7.58852C102.747 7.71684 102.688 7.90621 102.57 8.15697C102.452 8.4081 102.346 8.62477 102.252 8.8067C102.159 8.98883 102.07 9.16091 101.986 9.32344C101.903 9.48551 101.809 9.68539 101.706 9.92163C101.602 10.1574 101.516 10.3746 101.448 10.5711C101.201 11.3193 101.241 11.693 101.566 11.693C101.979 11.693 102.589 10.8713 103.397 9.22747C103.465 9.09965 103.522 9.05038 103.566 9.0798C103.611 9.10921 103.633 9.14635 103.633 9.19033C103.633 9.23492 103.569 9.3876 103.441 9.64857C103.313 9.90922 103.175 10.1773 103.027 10.4528C102.88 10.7286 102.648 11.0488 102.333 11.4127C101.959 11.8654 101.6 12.0916 101.255 12.0916C100.872 12.0916 100.606 11.8608 100.459 11.3979C100.429 11.3093 100.414 11.1762 100.414 10.9991C100.414 10.8222 100.471 10.5859 100.584 10.2905C100.697 9.99518 100.877 9.63612 101.123 9.21262C101.369 8.78974 101.507 8.54076 101.536 8.46721C101.566 8.39354 101.58 8.32198 101.58 8.25327C101.58 7.94836 101.187 7.78583 100.4 7.76561L100.222 8.23842C99.602 9.86252 99.0064 10.95 98.4359 11.501C98.3375 11.5899 98.2878 11.5605 98.2878 11.4127C98.2878 11.383 98.2982 11.3487 98.3176 11.3093C98.869 10.5809 99.346 9.71968 99.7497 8.72529C100.153 7.73119 100.434 6.7864 100.591 5.89091C100.65 5.586 100.788 5.43299 101.005 5.43299C101.221 5.43299 101.379 5.57082 101.477 5.84665C101.507 5.93472 101.521 6.03813 101.521 6.15689Z" fill="#918F90"/>
<path d="M107.102 9.27926C106.777 9.9043 106.583 10.3717 106.519 10.682C106.455 10.9918 106.423 11.2428 106.423 11.4348C106.423 11.6268 106.497 11.7231 106.644 11.7231C106.831 11.7231 107.063 11.5507 107.338 11.206C107.742 10.7043 108.141 10.0499 108.534 9.24211C108.573 9.15388 108.617 9.10474 108.667 9.09473C108.746 9.06532 108.785 9.09473 108.785 9.18329C108.785 9.23256 108.77 9.29171 108.741 9.36071C107.835 11.1911 107.072 12.1067 106.452 12.1067C106.167 12.1067 105.936 11.9689 105.758 11.693C105.67 11.5456 105.625 11.3488 105.625 11.1026C105.625 10.857 105.675 10.5563 105.773 10.2021C104.986 11.4716 104.306 12.1067 103.735 12.1067C103.578 12.1067 103.436 12.0574 103.307 11.959C103.012 11.7525 102.865 11.398 102.865 10.8962C102.865 9.9316 103.283 8.95206 104.119 7.958C104.592 7.40667 105.173 7.04762 105.862 6.88038C106.049 6.83078 106.226 6.80637 106.393 6.80637C106.846 6.80637 107.23 6.96406 107.545 7.27885C107.643 7.38711 107.673 7.49052 107.633 7.5886C107.594 7.68751 107.51 7.72643 107.383 7.70686C107.274 7.35236 107.038 7.17544 106.674 7.17544C106.25 7.17544 105.729 7.51009 105.109 8.17934C104.754 8.57315 104.424 9.03561 104.119 9.56721C103.735 10.2076 103.544 10.7188 103.544 11.1026C103.544 11.4865 103.667 11.6785 103.913 11.6785C104.504 11.6785 105.276 10.773 106.231 8.9619C106.418 8.59801 106.576 8.34903 106.703 8.2162C106.831 8.08338 106.993 8.01711 107.191 8.01711C107.23 8.01711 107.331 8.03167 107.493 8.06141C107.656 8.09049 107.776 8.09583 107.855 8.07593C107.678 8.25335 107.427 8.6546 107.102 9.27926Z" fill="#918F90"/>
<path d="M108.859 11.8704H108.948C108.918 11.4472 108.8 11.1076 108.594 10.8515L108.268 11.5899C108.367 11.7769 108.563 11.8704 108.859 11.8704ZM106.777 16.4029C106.777 16.6882 106.856 16.8309 107.013 16.8309C107.2 16.8309 107.459 16.6121 107.788 16.1741C108.118 15.736 108.399 15.1357 108.63 14.3731C108.861 13.6099 108.977 12.9186 108.977 12.2984C108.977 12.2493 108.977 12.2001 108.977 12.1508C108.927 12.1508 108.884 12.1508 108.844 12.1508C108.559 12.1508 108.318 12.0723 108.121 11.9142C107.225 14.1782 106.777 15.6745 106.777 16.4029ZM106.792 17.2153C106.251 17.2153 105.98 16.9444 105.98 16.4029C105.98 15.6252 106.487 14.0408 107.501 11.649C107.382 11.4522 107.323 11.29 107.323 11.1617C107.323 10.7481 107.417 10.4727 107.604 10.3349C107.742 10.2169 107.857 10.1575 107.951 10.1575C108.044 10.1575 108.106 10.1628 108.135 10.1728C109.258 7.6429 110.266 5.54148 111.162 3.86828C111.339 3.51406 111.522 3.25309 111.708 3.08601C111.895 2.91848 112.132 2.83442 112.417 2.83442C112.456 2.83442 112.555 2.84931 112.712 2.87918C112.87 2.90843 112.988 2.91848 113.067 2.90843C112.604 3.34165 111.955 4.29629 111.118 5.773C110.281 7.24893 109.489 8.82877 108.741 10.5123C108.967 10.7878 109.125 11.1569 109.213 11.6196L109.258 11.8113C109.277 11.8113 109.292 11.8113 109.302 11.8113C109.567 11.8113 109.848 11.6562 110.144 11.3462C110.439 11.036 110.68 10.7162 110.867 10.3866C111.054 10.057 111.206 9.76658 111.325 9.51549C111.442 9.2644 111.517 9.12913 111.546 9.10927C111.576 9.08971 111.603 9.08276 111.627 9.08731C111.652 9.09231 111.674 9.10216 111.694 9.11701C111.713 9.13157 111.723 9.15598 111.723 9.19039C111.723 9.22514 111.713 9.26179 111.694 9.30121C110.877 11.1617 110.075 12.0916 109.287 12.0916C109.297 12.2493 109.302 12.5074 109.302 12.8669C109.302 13.226 109.213 13.76 109.036 14.4686C108.859 15.1776 108.561 15.8121 108.143 16.3735C107.725 16.9343 107.274 17.2153 106.792 17.2153Z" fill="#918F90"/>
<path d="M114.056 6.46664C114.705 5.30517 115.03 4.49804 115.03 4.04513C115.03 3.84831 114.996 3.74974 114.927 3.74974C114.818 3.74974 114.654 3.90746 114.432 4.22255C114.211 4.53747 113.839 5.28527 113.318 6.46664H114.056ZM113.864 6.79144H113.17C113.052 7.06739 112.786 7.72184 112.373 8.75499C112.904 8.204 113.401 7.54976 113.864 6.79144ZM111.088 10.8962C111.088 10.0792 111.482 8.7104 112.269 6.79144H111.502C111.452 6.79144 111.421 6.7646 111.406 6.70999C111.391 6.65667 111.396 6.60203 111.421 6.54776C111.445 6.49394 111.482 6.46664 111.531 6.46664H112.417C112.772 5.68942 113.101 5.03919 113.406 4.51794C113.711 3.99632 113.991 3.64438 114.247 3.46229C114.504 3.27986 114.688 3.18936 114.801 3.18936C114.915 3.18936 114.996 3.19875 115.045 3.2186C115.271 3.32706 115.385 3.55085 115.385 3.8905C115.385 4.22966 115.271 4.64088 115.045 5.12275C114.818 5.60557 114.597 6.05348 114.381 6.46664H115.09C115.138 6.46664 115.171 6.49394 115.185 6.54776C115.2 6.60203 115.195 6.65667 115.171 6.70999C115.146 6.7646 115.109 6.79144 115.059 6.79144H114.204C113.662 7.70678 113.007 8.51846 112.24 9.22747L111.9 10.7336C111.871 10.8617 111.856 10.9868 111.856 11.1099C111.856 11.2332 111.89 11.3586 111.959 11.4865C112.028 11.6147 112.137 11.6784 112.284 11.6784C112.451 11.6784 112.638 11.6196 112.845 11.501C113.318 11.1468 113.839 10.4035 114.41 9.27173C114.45 9.18321 114.496 9.12906 114.551 9.10921C114.604 9.08964 114.637 9.10209 114.646 9.14635C114.656 9.19033 114.641 9.26172 114.602 9.36063C114.277 10.0394 114.022 10.5218 113.834 10.8073C113.303 11.6635 112.737 12.0916 112.137 12.0916C111.831 12.0916 111.58 11.9786 111.384 11.7524C111.186 11.5257 111.088 11.2407 111.088 10.8962Z" fill="#918F90"/>
<path d="M117.54 7.44076C117.54 7.24395 117.461 7.14537 117.304 7.14537C117.028 7.14537 116.61 7.48503 116.049 8.16433C115.714 8.57799 115.419 9.04046 115.163 9.5522C115.33 9.5522 115.574 9.49337 115.894 9.37507C116.214 9.25713 116.492 9.09957 116.728 8.90263C117.269 8.43983 117.54 7.953 117.54 7.44076ZM115.059 9.80312C114.922 10.1383 114.853 10.5122 114.853 10.9255C114.853 11.201 114.915 11.4198 115.038 11.5823C115.16 11.7446 115.335 11.826 115.562 11.826C116.457 11.826 117.269 10.9842 117.998 9.30106C118.067 9.14387 118.15 9.07471 118.249 9.09457C118.288 9.10458 118.308 9.12898 118.308 9.16857C118.308 9.20754 118.197 9.46607 117.976 9.94339C117.754 10.4212 117.53 10.8072 117.304 11.1024C116.802 11.7916 116.182 12.1362 115.443 12.1362C115.05 12.1362 114.715 12.0085 114.439 11.7523C114.164 11.4964 114.026 11.1467 114.026 10.7041C114.026 10.2607 114.132 9.79116 114.344 9.29366C114.555 8.79677 114.843 8.33431 115.208 7.90613C115.572 7.47808 115.99 7.16527 116.462 6.96845C116.689 6.87037 116.905 6.82073 117.112 6.82073C117.318 6.82073 117.51 6.88022 117.688 6.99819C117.855 7.13631 117.938 7.28854 117.938 7.45561C117.938 8.04636 117.584 8.61224 116.876 9.15372C116.659 9.32129 116.354 9.47108 115.96 9.6039C115.567 9.73702 115.266 9.80312 115.059 9.80312Z" fill="#918F90"/>
<path d="M121.881 7.33784C121.752 7.20957 121.572 7.14541 121.342 7.14541C121.11 7.14541 120.788 7.31799 120.375 7.66248C119.715 8.21347 119.169 8.89311 118.736 9.69974C118.45 10.2314 118.307 10.6694 118.307 11.0141C118.307 11.1716 118.339 11.3143 118.403 11.4421C118.468 11.5699 118.568 11.6341 118.706 11.6341C119.04 11.6341 119.454 11.2899 119.946 10.6007C120.438 9.91207 121.084 8.82411 121.881 7.33784ZM121.157 11.2209C121.157 11.5357 121.285 11.6929 121.541 11.6929C122.003 11.6929 122.619 10.9205 123.386 9.37511C123.416 9.31599 123.443 9.25717 123.468 9.19802C123.492 9.13858 123.532 9.09961 123.586 9.07975C123.64 9.06035 123.677 9.07231 123.697 9.1169C123.716 9.16087 123.707 9.23243 123.667 9.33084C122.88 11.1616 122.082 12.0767 121.275 12.0767C121.009 12.0767 120.798 11.9589 120.641 11.7229C120.483 11.4864 120.404 11.2527 120.404 11.021C120.404 10.7903 120.429 10.576 120.478 10.3795C119.907 11.3243 119.415 11.8608 119.002 11.9881C118.883 12.0379 118.767 12.0623 118.655 12.0623C118.541 12.0623 118.431 12.0472 118.322 12.0175C117.84 11.8902 117.599 11.5063 117.599 10.8664C117.599 10.4332 117.71 9.95344 117.931 9.42681C118.153 8.90023 118.465 8.39594 118.868 7.91357C119.272 7.43125 119.759 7.10615 120.331 6.93908C120.537 6.87041 120.78 6.83566 121.061 6.83566C121.342 6.83566 121.654 6.92419 121.999 7.10164C122.668 5.8416 123.239 4.67509 123.711 3.60252C123.849 3.27771 123.985 3.06894 124.117 2.97508C124.25 2.88151 124.373 2.83431 124.486 2.83431C124.6 2.83431 124.669 2.83431 124.693 2.83431C124.718 2.83431 124.811 2.8471 124.974 2.87167C125.136 2.89636 125.261 2.90348 125.35 2.89396C125.123 3.1003 124.523 4.10424 123.549 5.90543C122.309 8.20863 121.56 9.744 121.305 10.5122C121.206 10.7977 121.157 11.0338 121.157 11.2209Z" fill="#918F90"/>
<path d="M134.843 8.09032C135.561 8.09032 136.342 7.96523 137.183 7.7138C138.025 7.46321 138.771 7.09655 139.42 6.61422C140.68 5.65958 141.31 4.67504 141.31 3.66129C141.31 2.50966 140.439 1.72744 138.697 1.31378C138.145 2.08145 137.432 3.24792 136.555 4.81287C135.68 6.37815 135.04 7.47062 134.637 8.09032C134.705 8.09032 134.774 8.09032 134.843 8.09032ZM140.69 1.66812C141.733 2.28827 142.255 3.03658 142.255 3.91221C142.255 4.60136 141.871 5.33983 141.103 6.12656C140.66 6.58953 140.136 6.98829 139.531 7.32294C138.925 7.65759 138.327 7.89834 137.737 8.04634C136.713 8.29247 135.788 8.41541 134.961 8.41541C134.784 8.41541 134.607 8.41073 134.43 8.40056C133.711 9.4541 132.973 10.3493 132.215 11.0876C131.103 12.1309 129.877 12.6528 128.539 12.6528C127.259 12.6528 126.472 12.3033 126.176 11.6043C126.108 11.4371 126.073 11.2427 126.073 11.021C126.073 10.7996 126.186 10.5614 126.413 10.3053C126.767 9.90168 127.264 9.69969 127.904 9.69969C128.317 9.69969 128.75 9.77386 129.203 9.92154C129.37 9.98069 129.43 10.0447 129.38 10.1133C129.341 10.1528 129.213 10.1332 128.997 10.0539C128.78 9.97568 128.512 9.93593 128.192 9.93593C127.872 9.93593 127.591 10.0568 127.35 10.2979C127.109 10.5391 126.988 10.7977 126.988 11.0727C126.988 11.1814 127.008 11.2899 127.048 11.3978C127.205 11.9294 127.653 12.1949 128.391 12.1949C129.494 12.1949 130.576 11.6833 131.639 10.6595C132.397 9.92154 133.248 8.59237 134.194 6.67337C134.558 5.95498 135.01 5.15529 135.552 4.27416C136.093 3.3932 136.644 2.63777 137.205 2.00777C137.274 1.93878 137.363 1.85021 137.471 1.74229C137.678 1.50555 137.85 1.31862 137.988 1.18095C137.279 1.08288 136.521 1.03324 135.714 1.03324C134.907 1.03324 134.144 1.09984 133.426 1.23266C132.707 1.36549 132.082 1.52301 131.551 1.70543C131.019 1.8874 130.481 2.12364 129.934 2.41399C129.388 2.70437 128.928 3.07083 128.553 3.5139C128.061 4.07494 127.815 4.66019 127.815 5.27083C127.815 5.64473 127.949 5.99423 128.214 6.31903C128.5 6.66353 128.866 6.83561 129.314 6.83561C129.762 6.83561 130.195 6.66353 130.613 6.31903C131.032 5.97438 131.329 5.55116 131.506 5.04944C131.516 4.98077 131.538 4.93328 131.573 4.90888C131.607 4.88447 131.639 4.88687 131.669 4.91628C131.698 4.94602 131.713 4.99533 131.713 5.064C131.703 5.70384 131.455 6.20851 130.967 6.57707C130.481 6.94647 129.942 7.13096 129.351 7.13096C128.682 7.13096 128.135 6.93402 127.712 6.54022C127.289 6.14691 127.077 5.63973 127.077 5.01924C127.077 4.44914 127.23 3.93418 127.535 3.47675C127.84 3.01912 128.204 2.64783 128.627 2.36228C129.051 2.07644 129.537 1.8208 130.089 1.59412C131.024 1.22071 132.006 0.957126 133.034 0.804445C134.063 0.651929 135.022 0.57532 135.913 0.57532C136.804 0.57532 137.629 0.654659 138.386 0.811891C138.74 0.536394 139.051 0.349092 139.317 0.250517C139.583 0.152604 139.732 0.103336 139.767 0.103336C139.801 0.103336 139.823 0.108342 139.833 0.117857C139.892 0.117857 139.905 0.150039 139.871 0.213866C139.836 0.278314 139.722 0.373828 139.531 0.502103C139.339 0.629923 139.154 0.782148 138.977 0.959566C139.607 1.12664 140.178 1.36338 140.69 1.66812Z" fill="#918F90"/>
<path d="M142.417 6.15689C142.417 6.59946 142.137 7.01813 141.576 7.4116C141.773 7.42144 142.035 7.42645 142.366 7.42645C142.695 7.42645 143.111 7.40159 143.614 7.35228C143.633 7.38169 143.643 7.4612 143.643 7.58852C143.643 7.71684 143.583 7.90621 143.465 8.15697C143.347 8.4081 143.242 8.62477 143.148 8.8067C143.055 8.98883 142.966 9.16091 142.882 9.32344C142.799 9.48551 142.705 9.68539 142.602 9.92163C142.498 10.1574 142.412 10.3746 142.343 10.5711C142.097 11.3193 142.137 11.693 142.462 11.693C142.875 11.693 143.485 10.8713 144.292 9.22747C144.361 9.09965 144.418 9.05038 144.462 9.0798C144.507 9.10921 144.529 9.14635 144.529 9.19033C144.529 9.23492 144.464 9.3876 144.337 9.64857C144.208 9.90922 144.071 10.1773 143.923 10.4528C143.775 10.7286 143.544 11.0488 143.229 11.4127C142.855 11.8654 142.496 12.0916 142.152 12.0916C141.768 12.0916 141.502 11.8608 141.355 11.3979C141.325 11.3093 141.31 11.1762 141.31 10.9991C141.31 10.8222 141.367 10.5859 141.479 10.2905C141.593 9.99518 141.773 9.63612 142.018 9.21262C142.265 8.78974 142.403 8.54076 142.432 8.46721C142.462 8.39354 142.476 8.32198 142.476 8.25327C142.476 7.94836 142.083 7.78583 141.295 7.76561L141.118 8.23842C140.498 9.86252 139.902 10.95 139.332 11.501C139.233 11.5899 139.184 11.5605 139.184 11.4127C139.184 11.383 139.194 11.3487 139.213 11.3093C139.765 10.5809 140.242 9.71968 140.646 8.72529C141.049 7.73119 141.33 6.7864 141.487 5.89091C141.546 5.586 141.684 5.43299 141.901 5.43299C142.117 5.43299 142.275 5.57082 142.373 5.84665C142.403 5.93472 142.417 6.03813 142.417 6.15689Z" fill="#918F90"/>
<path d="M147.392 7.44076C147.392 7.24395 147.313 7.14537 147.156 7.14537C146.881 7.14537 146.462 7.48503 145.901 8.16433C145.567 8.57799 145.271 9.04046 145.015 9.5522C145.183 9.5522 145.426 9.49337 145.747 9.37507C146.066 9.25713 146.344 9.09957 146.58 8.90263C147.121 8.43983 147.392 7.953 147.392 7.44076ZM144.912 9.80312C144.774 10.1383 144.705 10.5122 144.705 10.9255C144.705 11.201 144.767 11.4198 144.89 11.5823C145.013 11.7446 145.188 11.826 145.414 11.826C146.309 11.826 147.121 10.9842 147.85 9.30106C147.919 9.14387 148.003 9.07471 148.101 9.09457C148.14 9.10458 148.16 9.12898 148.16 9.16857C148.16 9.20754 148.049 9.46607 147.828 9.94339C147.607 10.4212 147.383 10.8072 147.156 11.1024C146.654 11.7916 146.034 12.1362 145.296 12.1362C144.902 12.1362 144.567 12.0085 144.292 11.7523C144.016 11.4964 143.878 11.1467 143.878 10.7041C143.878 10.2607 143.984 9.79116 144.196 9.29366C144.408 8.79677 144.695 8.33431 145.06 7.90613C145.424 7.47808 145.842 7.16527 146.315 6.96845C146.541 6.87037 146.757 6.82073 146.964 6.82073C147.171 6.82073 147.363 6.88022 147.54 6.99819C147.707 7.13631 147.791 7.28854 147.791 7.45561C147.791 8.04636 147.437 8.61224 146.728 9.15372C146.512 9.32129 146.206 9.47108 145.813 9.6039C145.419 9.73702 145.119 9.80312 144.912 9.80312Z" fill="#918F90"/>
<path d="M150.611 8.68091C150.955 8.26775 151.128 7.91825 151.128 7.6332C151.128 7.34736 151.01 7.20502 150.773 7.20502C150.31 7.20502 149.784 7.62819 149.194 8.47458C149.007 8.74056 148.824 9.08956 148.648 9.52278C148.47 9.95584 148.382 10.3472 148.382 10.6962C148.382 11.0462 148.453 11.3288 148.596 11.5455C148.738 11.7619 148.96 11.8703 149.26 11.8703C149.561 11.8703 149.838 11.799 150.095 11.656C150.35 11.5137 150.594 11.287 150.825 10.9772C151.056 10.667 151.231 10.4088 151.349 10.2019C151.467 9.9951 151.63 9.68531 151.836 9.27165C151.906 9.13382 151.964 9.07761 152.014 9.10201C152.062 9.12642 152.088 9.16083 152.088 9.20543C152.088 9.24969 152.021 9.41226 151.888 9.69226C151.755 9.9728 151.622 10.2367 151.489 10.4824C151.357 10.7285 151.167 11.004 150.921 11.3092C150.478 11.8607 149.873 12.1362 149.105 12.1362C148.554 12.1362 148.157 12.0005 147.917 11.73C147.675 11.4595 147.555 11.1467 147.555 10.7927C147.555 10.3596 147.661 9.88684 147.872 9.37507C148.084 8.86333 148.327 8.42026 148.603 8.04636C149.174 7.26868 149.834 6.88022 150.581 6.88022C150.945 6.88022 151.209 6.96634 151.372 7.13842C151.534 7.31083 151.615 7.50993 151.615 7.73612C151.615 8.07076 151.477 8.35631 151.201 8.59239C151.063 8.72066 150.948 8.78432 150.855 8.78432C150.761 8.78432 150.68 8.75007 150.611 8.68091Z" fill="#918F90"/>
<path d="M153.756 6.33344C153.618 6.45175 153.465 6.51086 153.298 6.51086C153.131 6.51086 152.998 6.45175 152.899 6.33344C152.801 6.21567 152.762 6.0728 152.781 5.90543C152.811 5.73819 152.894 5.59548 153.032 5.47771C153.17 5.35924 153.322 5.30013 153.49 5.30013C153.658 5.30013 153.793 5.35924 153.896 5.47771C153.999 5.59548 154.036 5.73819 154.007 5.90543C153.977 6.0728 153.893 6.21567 153.756 6.33344ZM152.309 11.7524C152.496 11.7524 152.693 11.6585 152.899 11.4715C153.264 11.1075 153.726 10.3642 154.287 9.24199C154.356 9.0946 154.425 9.05034 154.494 9.10916C154.513 9.12902 154.524 9.16087 154.524 9.20546C154.524 9.24973 154.484 9.35815 154.405 9.53023C154.326 9.70264 154.255 9.85747 154.192 9.99514C154.127 10.1333 154.004 10.3571 153.822 10.667C153.64 10.9772 153.476 11.2159 153.327 11.383C152.924 11.8459 152.543 12.0767 152.183 12.0767C151.824 12.0767 151.566 11.9687 151.408 11.7524C151.251 11.5357 151.172 11.2944 151.172 11.0289C151.172 10.763 151.236 10.4726 151.364 10.1574L152.309 7.75104C152.328 7.69189 152.338 7.61338 152.338 7.51497C152.338 7.4164 152.28 7.28858 152.161 7.13101L152.973 7.11616C153.2 7.11616 153.332 7.15786 153.372 7.24187C153.411 7.32543 153.382 7.45565 153.284 7.63324L152.102 10.3939C151.935 10.7583 151.852 11.0682 151.852 11.3243C151.852 11.6097 152.004 11.7524 152.309 11.7524Z" fill="#918F90"/>
<path d="M155.07 11.6929C155.503 11.3586 155.719 10.8171 155.719 10.0693C155.719 9.76386 155.684 9.34537 155.616 8.81373C155.547 8.2826 155.512 7.92358 155.512 7.73611C155.512 7.54968 155.517 7.42136 155.527 7.3522C154.779 8.84848 154.317 9.75902 154.139 10.0841C154.346 10.0841 154.45 10.2313 154.45 10.5267C154.45 11.1074 154.657 11.4964 155.07 11.6929ZM153.962 11.2944C153.962 11.3535 153.967 11.4177 153.977 11.4864C154.056 11.7523 154.238 11.8846 154.524 11.8846C154.642 11.8846 154.74 11.8653 154.819 11.826C154.455 11.5998 154.258 11.2302 154.228 10.7187C154.051 10.8961 153.962 11.0876 153.962 11.2944ZM155.572 11.7963C155.699 11.816 155.788 11.826 155.837 11.826C156.231 11.826 156.62 11.5948 157.004 11.1323C157.21 10.8762 157.579 10.2313 158.111 9.19798C158.13 9.14888 158.165 9.12398 158.215 9.12398C158.303 9.11446 158.348 9.14888 158.348 9.22739C158.348 9.24729 158.325 9.304 158.281 9.39707C158.237 9.49093 158.195 9.58434 158.156 9.67791C158.116 9.77176 158.052 9.90653 157.963 10.0841C157.875 10.2607 157.799 10.4034 157.735 10.5122C157.67 10.6206 157.589 10.7534 157.491 10.9106C157.392 11.0682 157.294 11.191 157.196 11.2795L156.886 11.6043C156.718 11.7722 156.522 11.8901 156.295 11.9588C155.931 12.0766 155.577 12.0866 155.232 11.9881C155.006 12.0866 154.804 12.1362 154.627 12.1362C153.928 12.1362 153.505 11.8607 153.357 11.3092C153.327 11.1814 153.313 11.0263 153.313 10.8444C153.313 10.662 153.374 10.4874 153.497 10.3199C153.62 10.1528 153.751 10.0643 153.889 10.0539C154.391 9.09957 154.819 8.23834 155.173 7.47063C155.567 6.63413 156.025 6.21563 156.546 6.21563C156.684 6.21563 156.82 6.24744 156.952 6.31193C157.085 6.3756 157.134 6.44716 157.1 6.52588C157.065 6.60489 156.994 6.61924 156.886 6.56997C156.777 6.52038 156.684 6.49597 156.605 6.49597C156.526 6.49597 156.458 6.51082 156.398 6.54023C156.064 6.69796 155.897 7.03745 155.897 7.55903C155.897 7.83452 155.936 8.06125 156.015 8.23834C156.094 8.41542 156.182 8.6074 156.281 8.81373C156.507 9.3258 156.62 9.74397 156.62 10.0693C156.62 10.3939 156.517 10.7137 156.31 11.0289C156.103 11.344 155.857 11.5998 155.572 11.7963Z" fill="#918F90"/>
<path d="M161.212 7.44076C161.212 7.24395 161.133 7.14537 160.975 7.14537C160.7 7.14537 160.281 7.48503 159.721 8.16433C159.386 8.57799 159.091 9.04046 158.835 9.5522C159.002 9.5522 159.246 9.49337 159.565 9.37507C159.885 9.25713 160.163 9.09957 160.4 8.90263C160.941 8.43983 161.212 7.953 161.212 7.44076ZM158.731 9.80312C158.593 10.1383 158.525 10.5122 158.525 10.9255C158.525 11.201 158.586 11.4198 158.709 11.5823C158.832 11.7446 159.007 11.826 159.233 11.826C160.129 11.826 160.941 10.9842 161.669 9.30106C161.738 9.14387 161.822 9.07471 161.92 9.09457C161.959 9.10458 161.979 9.12898 161.979 9.16857C161.979 9.20754 161.869 9.46607 161.647 9.94339C161.426 10.4212 161.201 10.8072 160.975 11.1024C160.473 11.7916 159.853 12.1362 159.115 12.1362C158.721 12.1362 158.387 12.0085 158.111 11.7523C157.836 11.4964 157.698 11.1467 157.698 10.7041C157.698 10.2607 157.803 9.79116 158.015 9.29366C158.227 8.79677 158.515 8.33431 158.879 7.90613C159.243 7.47808 159.661 7.16527 160.134 6.96845C160.36 6.87037 160.577 6.82073 160.784 6.82073C160.99 6.82073 161.182 6.88022 161.359 6.99819C161.526 7.13631 161.611 7.28854 161.611 7.45561C161.611 8.04636 161.256 8.61224 160.547 9.15372C160.331 9.32129 160.025 9.47108 159.632 9.6039C159.238 9.73702 158.938 9.80312 158.731 9.80312Z" fill="#918F90"/>
<path d="M164.135 6.82089C164.627 6.04367 164.989 5.38137 165.22 4.83534C165.451 4.2889 165.567 3.91739 165.567 3.72057C165.567 3.52363 165.532 3.42522 165.464 3.42522C165.365 3.42522 165.178 3.6201 164.903 4.00835C164.627 4.39761 164.255 5.09631 163.787 6.10527C163.32 7.11418 162.939 7.99725 162.644 8.75507C163.145 8.2435 163.642 7.59861 164.135 6.82089ZM162.392 9.63376C162.314 9.865 162.247 10.0867 162.193 10.2981C162.139 10.5099 162.112 10.7213 162.112 10.9326C162.112 11.1444 162.161 11.3418 162.259 11.5233C162.358 11.7058 162.515 11.7964 162.732 11.7964C163.086 11.7964 163.431 11.5581 163.765 11.0808C164.1 10.6033 164.455 9.99526 164.829 9.25729C164.907 9.11963 164.981 9.06532 165.05 9.09473C165.099 9.13398 165.109 9.18569 165.079 9.24985C165.05 9.31351 164.989 9.45134 164.895 9.66317C164.801 9.87488 164.732 10.0222 164.688 10.1058C164.644 10.1901 164.565 10.3373 164.452 10.5491C164.338 10.7605 164.24 10.9182 164.157 11.0212C164.073 11.1246 163.96 11.2577 163.817 11.4199C163.675 11.5825 163.539 11.7034 163.411 11.7819C163.066 11.9986 162.742 12.1067 162.437 12.1067C162.131 12.1067 161.895 12.0399 161.728 11.9073C161.56 11.7744 161.46 11.6318 161.425 11.4791C161.391 11.3269 161.374 11.1911 161.374 11.0729C161.374 10.9549 161.379 10.8023 161.388 10.6154C161.418 10.3007 161.479 9.99526 161.573 9.69987C161.666 9.40464 161.718 9.2374 161.728 9.19814C161.955 8.38084 162.277 7.49052 162.695 6.52604C163.113 5.56135 163.468 4.83534 163.758 4.34801C164.048 3.86068 164.277 3.52864 164.445 3.35151C164.779 2.997 165.109 2.82008 165.434 2.82008C165.661 2.82008 165.813 2.98261 165.891 3.30725C165.901 3.36607 165.906 3.44007 165.906 3.52864C165.906 3.86357 165.788 4.28679 165.552 4.79803C164.705 6.67822 163.696 8.15494 162.525 9.22755C162.515 9.2673 162.471 9.40257 162.392 9.63376Z" fill="#918F90"/>
<path d="M161.949 15.2811C161.841 15.4974 161.786 15.6968 161.786 15.8788C161.786 16.0609 161.856 16.2014 161.993 16.2995C162.131 16.3979 162.304 16.4472 162.51 16.4472C163.081 16.4472 163.691 16.1539 164.341 15.5685C164.99 14.9828 165.561 14.3557 166.054 13.6869L166.378 13.1399C164.754 13.5631 163.731 13.8685 163.307 14.0554C162.678 14.3309 162.225 14.7396 161.949 15.2811ZM162.805 16.7424C162.373 16.7424 162.038 16.6515 161.801 16.4695C161.565 16.2874 161.447 16.0683 161.447 15.8122C161.447 15.5561 161.521 15.2662 161.669 14.9414C161.925 14.4392 162.387 14.0356 163.057 13.7307C163.558 13.4944 164.223 13.2753 165.05 13.0733C165.876 12.872 166.408 12.7366 166.644 12.6676C166.999 12.0474 167.421 10.9401 167.914 9.34557C167.343 10.3495 166.866 11.0535 166.482 11.4572C166.098 11.8609 165.709 12.0624 165.316 12.0624C164.784 12.0624 164.474 11.8411 164.385 11.398C164.346 11.329 164.336 11.2256 164.356 11.0878C164.375 10.9501 164.388 10.8515 164.393 10.7929C164.397 10.7337 164.43 10.6378 164.489 10.5046C164.548 10.3718 164.587 10.2763 164.607 10.217C164.715 9.99046 164.808 9.81334 164.887 9.68552C164.73 9.68552 164.685 9.60651 164.754 9.44899L165.02 8.93225C165.355 8.29269 165.63 7.75121 165.847 7.30831C165.945 7.10181 166.137 6.9984 166.423 6.9984H167.323C167.303 7.01825 167.254 7.05718 167.176 7.11633C166.999 7.2346 166.866 7.3723 166.777 7.52999C166.423 8.14013 165.98 9.01125 165.449 10.143C165.231 10.6054 165.123 10.9456 165.123 11.1618C165.123 11.3786 165.161 11.5308 165.234 11.6197C165.308 11.7079 165.409 11.7525 165.537 11.7525C165.724 11.7525 165.985 11.5552 166.319 11.1618C167.018 10.3453 167.791 9.06052 168.637 7.30831C168.746 7.10181 168.937 6.9984 169.213 6.9984H170.01C169.754 7.17548 169.553 7.39927 169.405 7.67026C169.258 7.94075 169.097 8.30754 168.925 8.77018C168.753 9.2326 168.537 9.84759 168.276 10.6155C168.015 11.3832 167.816 11.959 167.678 12.3433C168.603 12.0678 169.312 11.5804 169.804 10.8809C170.02 10.5762 170.331 10.0351 170.734 9.25734C170.803 9.11967 170.864 9.06536 170.918 9.09477C170.972 9.12418 171 9.16394 171 9.21275C171 9.26185 170.918 9.45139 170.756 9.78103C170.594 10.1112 170.429 10.4161 170.261 10.6964C170.094 10.9774 169.878 11.2649 169.612 11.5606C169.346 11.8556 169.051 12.0893 168.726 12.2619C168.401 12.4334 167.968 12.6183 167.427 12.8153C166.668 14.1931 165.906 15.2071 165.138 15.8568C164.42 16.4472 163.642 16.7424 162.805 16.7424Z" fill="#918F90"/>
<path d="M82.719 12.3584C83.0127 12.0663 83.4677 11.5012 83.7341 11.0958L84.3467 11.3052C83.9757 11.7494 83.4081 12.2917 83.112 12.4956L82.719 12.3584Z" fill="#918F90"/>
</svg>
