<svg width="20" height="22" viewBox="0 0 20 22" fill="none" xmlns="http://www.w3.org/2000/svg">
<path d="M11.73 20.0005C11.5542 20.3036 11.3018 20.5551 10.9982 20.73C10.6946 20.9049 10.3504 20.9969 10 20.9969C9.64962 20.9969 9.30539 20.9049 9.00177 20.73C8.69816 20.5551 8.44581 20.3036 8.27 20.0005M16 7.00049C16 5.40919 15.3679 3.88307 14.2426 2.75785C13.1174 1.63263 11.5913 1.00049 10 1.00049C8.4087 1.00049 6.88258 1.63263 5.75736 2.75785C4.63214 3.88307 4 5.40919 4 7.00049C4 14.0005 1 16.0005 1 16.0005H19C19 16.0005 16 14.0005 16 7.00049Z" stroke="black" stroke-linecap="round" stroke-linejoin="round"/>
</svg>
