<svg width="20" height="20" viewBox="0 0 20 20" fill="none" xmlns="http://www.w3.org/2000/svg">
<path d="M11.2488 14H10.2296V10H9.21048L11.2488 14ZM10.2296 6H10.2398H10.2296ZM19.4019 10C19.4019 11.1819 19.1646 12.3522 18.7037 13.4442C18.2427 14.5361 17.5671 15.5282 16.7154 16.364C15.8637 17.1997 14.8525 17.8626 13.7397 18.3149C12.6269 18.7672 11.4341 19 10.2296 19C9.02511 19 7.83238 18.7672 6.71955 18.3149C5.60673 17.8626 4.59558 17.1997 3.74386 16.364C2.89214 15.5282 2.21652 14.5361 1.75557 13.4442C1.29462 12.3522 1.05737 11.1819 1.05737 10C1.05737 7.61305 2.02373 5.32387 3.74386 3.63604C5.46399 1.94821 7.79699 1 10.2296 1C12.6623 1 14.9953 1.94821 16.7154 3.63604C18.4355 5.32387 19.4019 7.61305 19.4019 10Z" stroke="#010101" stroke-linecap="round" stroke-linejoin="round"/>
</svg>
